<mxfile host="65bd71144e">
    <diagram id="nOGMpfAXZdd0EZMB7a8R" name="Page-1">
        <mxGraphModel dx="1547" dy="616" grid="1" gridSize="10" guides="1" tooltips="1" connect="1" arrows="1" fold="1" page="1" pageScale="1" pageWidth="850" pageHeight="1100" math="0" shadow="0">
            <root>
                <mxCell id="0"/>
                <mxCell id="1" parent="0"/>
                <mxCell id="2" value="L0 Instruction Cache" style="rounded=0;whiteSpace=wrap;html=1;" vertex="1" parent="1">
                    <mxGeometry x="160" y="360" width="120" height="60" as="geometry"/>
                </mxCell>
                <mxCell id="3" value="L0 Data Cache" style="rounded=0;whiteSpace=wrap;html=1;" vertex="1" parent="1">
                    <mxGeometry x="440" y="360" width="120" height="60" as="geometry"/>
                </mxCell>
                <mxCell id="4" value="Instruction Fetch" style="rounded=0;whiteSpace=wrap;html=1;" vertex="1" parent="1">
                    <mxGeometry x="150" y="260" width="80" height="60" as="geometry"/>
                </mxCell>
                <mxCell id="5" value="Instruction Decode" style="rounded=0;whiteSpace=wrap;html=1;" vertex="1" parent="1">
                    <mxGeometry x="250" y="170" width="80" height="60" as="geometry"/>
                </mxCell>
                <mxCell id="6" value="Arithmetic Unit" style="rounded=0;whiteSpace=wrap;html=1;" vertex="1" parent="1">
                    <mxGeometry x="380" y="80" width="120" height="60" as="geometry"/>
                </mxCell>
                <mxCell id="7" value="Near Registers" style="rounded=0;whiteSpace=wrap;html=1;" vertex="1" parent="1">
                    <mxGeometry x="380" y="170" width="120" height="60" as="geometry"/>
                </mxCell>
                <mxCell id="8" value="Far Registers" style="rounded=0;whiteSpace=wrap;html=1;" vertex="1" parent="1">
                    <mxGeometry x="560" y="170" width="120" height="60" as="geometry"/>
                </mxCell>
                <mxCell id="9" value="Load Store Unit" style="rounded=0;whiteSpace=wrap;html=1;" vertex="1" parent="1">
                    <mxGeometry x="440" y="270" width="75" height="60" as="geometry"/>
                </mxCell>
                <mxCell id="10" value="Memory Protection Unit" style="rounded=0;whiteSpace=wrap;html=1;" vertex="1" parent="1">
                    <mxGeometry x="560" y="270" width="75" height="60" as="geometry"/>
                </mxCell>
                <mxCell id="11" value="Control Registers" style="rounded=0;whiteSpace=wrap;html=1;" vertex="1" parent="1">
                    <mxGeometry x="290" y="270" width="120" height="60" as="geometry"/>
                </mxCell>
            </root>
        </mxGraphModel>
    </diagram>
</mxfile>